<?xml version="1.0"?>
<svg xmlns="http://www.w3.org/2000/svg" xmlns:xlink="http://www.w3.org/1999/xlink" xmlns:svgjs="http://svgjs.com/svgjs" version="1.1" width="512" height="512" x="0" y="0" viewBox="0 0 512 512" style="enable-background:new 0 0 512 512" xml:space="preserve" class=""><g><path xmlns="http://www.w3.org/2000/svg" d="m392 112h28.687l-68.687-68.687v28.687a40.045 40.045 0 0 0 40 40z" fill="#d0c3f1" data-original="#000000" style="" class=""/><path xmlns="http://www.w3.org/2000/svg" d="m336 72v-40h-216a40.045 40.045 0 0 0 -40 40v280h352v-224h-40a56.063 56.063 0 0 1 -56-56zm-160 160v32a8.009 8.009 0 0 0 8 8 8 8 0 0 1 0 16 24.027 24.027 0 0 1 -24-24v-32a8.009 8.009 0 0 0 -8-8 8 8 0 0 1 0-16 8.009 8.009 0 0 0 8-8v-32a24.027 24.027 0 0 1 24-24 8 8 0 0 1 0 16 8.009 8.009 0 0 0 -8 8v32a23.9 23.9 0 0 1 -6.126 16 23.9 23.9 0 0 1 6.126 16zm80 8a8 8 0 1 1 8-8 8 8 0 0 1 -8 8zm0-32a8 8 0 1 1 8-8 8 8 0 0 1 -8 8zm104 16a8.009 8.009 0 0 0 -8 8v32a24.027 24.027 0 0 1 -24 24 8 8 0 0 1 0-16 8.009 8.009 0 0 0 8-8v-32a23.9 23.9 0 0 1 6.126-16 23.9 23.9 0 0 1 -6.126-16v-32a8.009 8.009 0 0 0 -8-8 8 8 0 0 1 0-16 24.027 24.027 0 0 1 24 24v32a8.009 8.009 0 0 0 8 8 8 8 0 0 1 0 16z" fill="#d0c3f1" data-original="#000000" style="" class=""/><path xmlns="http://www.w3.org/2000/svg" d="m80 440a40.045 40.045 0 0 0 40 40h272a40.045 40.045 0 0 0 40-40v-72h-352zm240-8a24 24 0 0 1 0-48h16a8 8 0 0 1 0 16h-16a8 8 0 0 0 0 16 24 24 0 0 1 0 48h-16a8 8 0 0 1 0-16h16a8 8 0 0 0 0-16zm-64 0a24 24 0 0 1 0-48h16a8 8 0 0 1 0 16h-16a8 8 0 0 0 0 16 24 24 0 0 1 0 48h-16a8 8 0 0 1 0-16h16a8 8 0 0 0 0-16zm-56-48a26.581 26.581 0 0 1 11.41 2.584 8 8 0 0 1 -6.82 14.474 10.708 10.708 0 0 0 -4.59-1.058c-8.673 0-16 10.991-16 24s7.327 24 16 24a10.708 10.708 0 0 0 4.59-1.058 8 8 0 1 1 6.82 14.474 26.581 26.581 0 0 1 -11.41 2.584c-17.645 0-32-17.944-32-40s14.355-40 32-40z" fill="#d0c3f1" data-original="#000000" style="" class=""/></g></svg>
